<svg width="204" height="64" viewBox="0 0 204 64" fill="none" xmlns="http://www.w3.org/2000/svg">
<path d="M7.45412 63.1675H193.807C197.546 63.1675 200.636 60.0231 200.636 56.1553V10.3324C200.636 6.46471 197.546 3.32029 193.807 3.32029H7.45412C3.7156 3.32029 0.625 6.46471 0.625 10.3324V56.1553C0.625 60.0231 3.7156 63.1675 7.45412 63.1675Z" fill="white" stroke="#F5F5F5"/>
<path d="M27.5374 17.4145C27.1679 17.7875 26.9541 18.3682 26.9541 19.1202V45.9448C26.9541 46.6969 27.1679 47.2776 27.5374 47.6505L27.6286 47.7324L43.217 32.7069V32.3521L27.6286 17.3266L27.5374 17.4145Z" fill="#042147"/>
<path d="M50.2939 37.7178L45.1035 32.7067V32.3519L50.3001 27.3409L50.4165 27.4061L56.5707 30.7827C58.327 31.7409 58.327 33.3178 56.5707 34.2821L50.4165 37.6526L50.2939 37.7178Z" fill="#042147"/>
<path d="M49.473 38.5859L44.16 33.4627L28.4805 48.5837C29.0638 49.175 30.0151 49.2463 31.0969 48.655L49.473 38.5859Z" fill="#042147"/>
<path d="M49.473 26.4734L31.0969 16.4044C30.0151 15.8191 29.0638 15.8904 28.4805 16.4817L44.16 31.5967L49.473 26.4734Z" fill="#042147"/>
<path d="M75.0002 20.6959C75.0002 21.7088 74.6857 22.5199 74.0662 23.1249C73.3539 23.8421 72.4262 24.2029 71.2894 24.2029C70.2029 24.2029 69.2752 23.836 68.5142 23.1128C67.7516 22.3789 67.3711 21.4783 67.3711 20.4003C67.3711 19.3223 67.7516 18.4216 68.5142 17.6939C69.2752 16.9646 70.2029 16.5977 71.2894 16.5977C71.8303 16.5977 72.346 16.7053 72.8382 16.9054C73.3287 17.1071 73.7281 17.38 74.0174 17.7166L73.3602 18.3564C72.8555 17.7818 72.1683 17.4983 71.2894 17.4983C70.4969 17.4983 69.8098 17.7651 69.2265 18.3034C68.6494 18.8431 68.3601 19.5421 68.3601 20.4003C68.3601 21.2585 68.6494 21.9635 69.2265 22.5032C69.8098 23.0354 70.4969 23.3084 71.2894 23.3084C72.1306 23.3084 72.8382 23.0354 73.3964 22.4972C73.7643 22.1409 73.9734 21.6496 74.0284 21.0219H71.2894V20.1456H74.9435C74.9876 20.3351 75.0002 20.5185 75.0002 20.6959Z" fill="#042147" stroke="#042147" stroke-width="0.143758" stroke-miterlimit="10"/>
<path d="M80.7967 17.6577H77.3643V19.9623H80.4587V20.8387H77.3643V23.1433H80.7967V24.0363H76.3926V16.7646H80.7967V17.6577Z" fill="#042147" stroke="#042147" stroke-width="0.143758" stroke-miterlimit="10"/>
<path d="M84.8886 24.0363H83.9169V17.6577H81.8115V16.7646H86.9956V17.6577H84.8886V24.0363Z" fill="#042147" stroke="#042147" stroke-width="0.143758" stroke-miterlimit="10"/>
<path d="M90.748 24.0363V16.7646H91.7182V24.0363H90.748Z" fill="#042147" stroke="#042147" stroke-width="0.143758" stroke-miterlimit="10"/>
<path d="M96.0175 24.0363H95.0537V17.6577H92.9404V16.7646H98.1308V17.6577H96.0175V24.0363Z" fill="#042147" stroke="#042147" stroke-width="0.143758" stroke-miterlimit="10"/>
<path d="M107.946 23.1006C107.202 23.836 106.281 24.2029 105.182 24.2029C104.077 24.2029 103.155 23.836 102.411 23.1006C101.669 22.3668 101.3 21.4662 101.3 20.4003C101.3 19.3344 101.669 18.4338 102.411 17.6999C103.155 16.9646 104.077 16.5977 105.182 16.5977C106.275 16.5977 107.196 16.9646 107.94 17.706C108.688 18.4459 109.058 19.3405 109.058 20.4003C109.058 21.4662 108.688 22.3668 107.946 23.1006ZM103.13 22.4911C103.69 23.0354 104.371 23.3084 105.182 23.3084C105.987 23.3084 106.674 23.0354 107.228 22.4911C107.786 21.9468 108.069 21.2478 108.069 20.4003C108.069 19.5527 107.786 18.8538 107.228 18.3094C106.674 17.7651 105.987 17.4922 105.182 17.4922C104.371 17.4922 103.69 17.7651 103.13 18.3094C102.572 18.8538 102.289 19.5527 102.289 20.4003C102.289 21.2478 102.572 21.9468 103.13 22.4911Z" fill="#042147" stroke="#042147" stroke-width="0.143758" stroke-miterlimit="10"/>
<path d="M110.421 24.0363V16.7646H111.6L115.267 22.4201H115.309L115.267 21.0221V16.7646H116.237V24.0363H115.224L111.385 18.1019H111.342L111.385 19.5059V24.0363H110.421Z" fill="#042147" stroke="#042147" stroke-width="0.143758" stroke-miterlimit="10"/>
<path d="M101.061 34.6558C98.1064 34.6558 95.6928 36.8239 95.6928 39.8154C95.6928 42.7826 98.1064 44.9735 101.061 44.9735C104.022 44.9735 106.435 42.7826 106.435 39.8154C106.435 36.8239 104.022 34.6558 101.061 34.6558ZM101.061 42.9418C99.4398 42.9418 98.0451 41.6515 98.0451 39.8154C98.0451 37.955 99.4398 36.6875 101.061 36.6875C102.682 36.6875 104.083 37.955 104.083 39.8154C104.083 41.6515 102.682 42.9418 101.061 42.9418ZM89.3484 34.6558C86.3876 34.6558 83.9804 36.8239 83.9804 39.8154C83.9804 42.7826 86.3876 44.9735 89.3484 44.9735C92.3076 44.9735 94.7164 42.7826 94.7164 39.8154C94.7164 36.8239 92.3076 34.6558 89.3484 34.6558ZM89.3484 42.9418C87.7257 42.9418 86.3263 41.6515 86.3263 39.8154C86.3263 37.955 87.7257 36.6875 89.3484 36.6875C90.9695 36.6875 92.3642 37.955 92.3642 39.8154C92.3642 41.6515 90.9695 42.9418 89.3484 42.9418ZM75.411 36.2371V38.4296H80.8404C80.6816 39.6547 80.257 40.5553 79.6061 41.183C78.8136 41.9411 77.5793 42.7826 75.411 42.7826C72.0698 42.7826 69.4534 40.1823 69.4534 36.9604C69.4534 33.7385 72.0698 31.1382 75.411 31.1382C77.2177 31.1382 78.5322 31.8189 79.5023 32.7014L81.1045 31.1564C79.7476 29.907 77.9425 28.9473 75.411 28.9473C70.8292 28.9473 66.9785 32.5422 66.9785 36.9604C66.9785 41.3786 70.8292 44.9735 75.411 44.9735C77.8875 44.9735 79.7476 44.1911 81.2099 42.7234C82.7083 41.2785 83.1753 39.2468 83.1753 37.6063C83.1753 37.0968 83.1313 36.6283 83.0527 36.2371H75.411ZM132.403 37.9368C131.961 36.783 130.598 34.6558 127.821 34.6558C125.069 34.6558 122.778 36.7466 122.778 39.8154C122.778 42.7053 125.046 44.9735 128.085 44.9735C130.542 44.9735 131.961 43.5285 132.544 42.6871L130.72 41.515C130.112 42.3732 129.283 42.9418 128.085 42.9418C126.895 42.9418 126.041 42.4157 125.494 41.3786L132.649 38.5236L132.403 37.9368ZM125.107 39.6547C125.046 37.6654 126.709 36.6465 127.901 36.6465C128.835 36.6465 129.627 37.0968 129.892 37.7412L125.107 39.6547ZM119.291 44.6596H121.643V29.4976H119.291V44.6596ZM115.438 35.805H115.36C114.832 35.2016 113.824 34.6558 112.547 34.6558C109.868 34.6558 107.418 36.924 107.418 39.8321C107.418 42.7234 109.868 44.9735 112.547 44.9735C113.824 44.9735 114.832 44.4231 115.36 43.8015H115.438V44.5414C115.438 46.5139 114.346 47.5738 112.583 47.5738C111.146 47.5738 110.254 46.5731 109.886 45.7316L107.841 46.5549C108.43 47.9225 109.992 49.6055 112.583 49.6055C115.341 49.6055 117.668 48.0408 117.668 44.2336V34.9696H115.438V35.805ZM112.748 42.9418C111.127 42.9418 109.77 41.6333 109.77 39.8321C109.77 38.0141 111.127 36.6875 112.748 36.6875C114.346 36.6875 115.605 38.0141 115.605 39.8321C115.605 41.6333 114.346 42.9418 112.748 42.9418ZM143.415 29.4976H137.789V44.6596H140.135V38.9148H143.415C146.021 38.9148 148.576 37.0968 148.576 34.2054C148.576 31.3156 146.014 29.4976 143.415 29.4976ZM143.477 36.8057H140.135V31.6067H143.477C145.228 31.6067 146.228 33.0092 146.228 34.2054C146.228 35.379 145.228 36.8057 143.477 36.8057ZM157.978 34.6269C156.283 34.6269 154.521 35.3487 153.796 36.9482L155.878 37.7897C156.326 36.9482 157.15 36.6753 158.021 36.6753C159.238 36.6753 160.472 37.3804 160.491 38.6252V38.7844C160.067 38.5478 159.158 38.1976 158.04 38.1976C155.798 38.1976 153.513 39.3878 153.513 41.609C153.513 43.6407 155.35 44.9492 157.414 44.9492C158.993 44.9492 159.864 44.2624 160.411 43.4634H160.491V44.6354H162.757V38.8192C162.757 36.131 160.675 34.6269 157.978 34.6269ZM157.695 42.9357C156.928 42.9357 155.859 42.5688 155.859 41.6515C155.859 40.478 157.192 40.0276 158.346 40.0276C159.379 40.0276 159.864 40.2475 160.491 40.5371C160.307 41.9411 159.054 42.9357 157.695 42.9357ZM171.012 34.959L168.315 41.5317H168.235L165.447 34.959H162.917L167.106 44.1441L164.716 49.2552H167.167L173.622 34.959H171.012ZM149.865 44.6596H152.217V29.4976H149.865V44.6596Z" fill="#042147"/>
</svg>
