<svg width="202" height="62" viewBox="0 0 202 62" fill="none" xmlns="http://www.w3.org/2000/svg">
<path d="M201.261 55.8712C201.261 59.2548 198.67 61.9956 195.466 61.9956H5.80314C2.6 61.9956 0 59.2548 0 55.8712V7.03086C0 3.64883 2.6 0.898438 5.80314 0.898438H195.464C198.67 0.898438 201.26 3.64883 201.26 7.03086L201.261 55.8712Z" fill="#035A30"/>
<path d="M48.7698 30.1494C48.7333 26.1887 52.0906 24.2618 52.2441 24.1721C50.3427 21.4648 47.3956 21.0949 46.36 21.0655C43.8848 20.8111 41.4838 22.5119 40.2229 22.5119C38.9369 22.5119 36.9952 21.09 34.9026 21.1318C32.2097 21.1724 29.6904 22.695 28.3087 25.0594C25.4573 29.8803 27.5839 36.9649 30.3158 40.8617C31.6824 42.7701 33.2793 44.901 35.3694 44.8261C37.4143 44.7437 38.1781 43.5529 40.6457 43.5529C43.0908 43.5529 43.808 44.8261 45.9397 44.7781C48.1343 44.7437 49.516 42.8611 50.8347 40.9354C52.414 38.748 53.0482 36.5937 53.0734 36.4831C53.0218 36.4659 48.8113 34.8966 48.7698 30.1494Z" fill="white"/>
<path d="M44.743 18.502C45.8428 17.1588 46.5953 15.3314 46.3864 13.4771C44.7946 13.5459 42.8038 14.5523 41.6575 15.866C40.6432 17.0236 39.7372 18.921 39.9713 20.7054C41.7594 20.8357 43.5954 19.8243 44.743 18.502Z" fill="white"/>
<path d="M72.5803 18.137C72.5803 19.5834 72.1361 20.6722 71.249 21.4034C70.4273 22.078 69.2595 22.416 67.747 22.416C66.997 22.416 66.3552 22.384 65.8179 22.3201V14.4171C66.5188 14.3065 67.2738 14.25 68.0892 14.25C69.5301 14.25 70.616 14.556 71.3484 15.168C72.1689 15.8598 72.5803 16.8491 72.5803 18.137ZM71.1898 18.1726C71.1898 17.235 70.9357 16.5161 70.4273 16.0147C69.9189 15.5145 69.1765 15.2638 68.1987 15.2638C67.7834 15.2638 67.4298 15.2909 67.1366 15.3474V21.3555C67.299 21.38 67.5959 21.3911 68.0276 21.3911C69.0368 21.3911 69.8157 21.117 70.3644 20.569C70.913 20.0209 71.1898 19.2221 71.1898 18.1726Z" fill="white"/>
<path d="M79.9525 19.4001C79.9525 20.2911 79.692 21.021 79.171 21.5937C78.6249 22.1823 77.9013 22.4761 76.9978 22.4761C76.127 22.4761 75.4337 22.1946 74.9165 21.6293C74.4005 21.0653 74.1426 20.3538 74.1426 19.496C74.1426 18.5989 74.4081 17.8628 74.9416 17.2914C75.4752 16.7199 76.1925 16.4336 77.096 16.4336C77.9668 16.4336 78.6664 16.715 79.1962 17.2791C79.6995 17.8272 79.9525 18.535 79.9525 19.4001ZM78.5846 19.4419C78.5846 18.9074 78.4663 18.449 78.231 18.0668C77.9542 17.6047 77.5603 17.3737 77.0482 17.3737C76.5184 17.3737 76.1157 17.6047 75.8389 18.0668C75.6023 18.449 75.4853 18.9147 75.4853 19.4653C75.4853 19.9998 75.6035 20.4582 75.8389 20.8404C76.1245 21.3025 76.5222 21.5335 77.0356 21.5335C77.5389 21.5335 77.934 21.2988 78.2184 20.8281C78.4626 20.4386 78.5846 19.9765 78.5846 19.4419Z" fill="white"/>
<path d="M89.8383 16.5518L87.9822 22.3448H86.7742L86.0053 19.8292C85.8103 19.2012 85.6517 18.577 85.5284 17.9576H85.5045C85.39 18.5942 85.2314 19.2172 85.0276 19.8292L84.2109 22.3448H82.989L81.2437 16.5518H82.5989L83.2696 19.3057C83.4319 19.957 83.5653 20.5776 83.6723 21.165H83.6962C83.7944 20.6808 83.9567 20.0639 84.1857 19.318L85.0276 16.553H86.1022L86.9088 19.259C87.1039 19.9189 87.2624 20.5543 87.3845 21.1662H87.421C87.5103 20.5702 87.645 19.9349 87.8237 19.259L88.5434 16.553H89.8383V16.5518Z" fill="white"/>
<path d="M96.6751 22.3443H95.3564V19.0263C95.3564 18.0039 94.9587 17.4927 94.1609 17.4927C93.7696 17.4927 93.4537 17.6328 93.2084 17.9142C92.9655 18.1956 92.8422 18.5274 92.8422 18.9071V22.3431H91.5234V18.2067C91.5234 17.6979 91.507 17.1461 91.4756 16.5489H92.6345L92.6962 17.4546H92.7327C92.8862 17.1732 93.1152 16.9409 93.416 16.7553C93.7734 16.5391 94.1735 16.4297 94.6114 16.4297C95.1651 16.4297 95.6257 16.6042 95.9919 16.9544C96.4474 17.3833 96.6751 18.0236 96.6751 18.874V22.3443Z" fill="white"/>
<path d="M100.312 22.3446H98.9941V13.8936H100.312V22.3446Z" fill="white"/>
<path d="M108.076 19.4001C108.076 20.2911 107.816 21.021 107.295 21.5937C106.748 22.1823 106.024 22.4761 105.121 22.4761C104.249 22.4761 103.556 22.1946 103.04 21.6293C102.524 21.0653 102.266 20.3538 102.266 19.496C102.266 18.5989 102.532 17.8628 103.065 17.2914C103.599 16.7199 104.316 16.4336 105.218 16.4336C106.09 16.4336 106.789 16.715 107.32 17.2791C107.823 17.8272 108.076 18.535 108.076 19.4001ZM106.707 19.4419C106.707 18.9074 106.589 18.449 106.353 18.0668C106.078 17.6047 105.683 17.3737 105.172 17.3737C104.641 17.3737 104.238 17.6047 103.962 18.0668C103.726 18.449 103.609 18.9147 103.609 19.4653C103.609 19.9998 103.727 20.4582 103.962 20.8404C104.248 21.3025 104.646 21.5335 105.159 21.5335C105.662 21.5335 106.056 21.2988 106.341 20.8281C106.586 20.4386 106.707 19.9765 106.707 19.4419Z" fill="white"/>
<path d="M114.458 22.3446H113.274L113.176 21.6773H113.139C112.734 22.2094 112.157 22.4761 111.407 22.4761C110.847 22.4761 110.394 22.3003 110.053 21.9513C109.743 21.6343 109.588 21.2398 109.588 20.7716C109.588 20.0637 109.89 19.5243 110.498 19.1507C111.105 18.7771 111.958 18.594 113.056 18.6026V18.4944C113.056 17.7313 112.646 17.3503 111.824 17.3503C111.239 17.3503 110.723 17.4941 110.278 17.7792L110.01 16.9338C110.561 16.6007 111.242 16.4336 112.045 16.4336C113.595 16.4336 114.373 17.2324 114.373 18.8299V20.9633C114.373 21.5421 114.402 22.0029 114.458 22.3446ZM113.089 20.3538V19.4604C111.634 19.4358 110.907 19.8253 110.907 20.6278C110.907 20.9301 110.99 21.1562 111.16 21.3074C111.33 21.4585 111.546 21.5335 111.804 21.5335C112.094 21.5335 112.364 21.4438 112.611 21.2656C112.859 21.0862 113.011 20.8588 113.068 20.5799C113.082 20.5172 113.089 20.441 113.089 20.3538Z" fill="white"/>
<path d="M121.952 22.3446H120.781L120.72 21.4144H120.683C120.31 22.1222 119.673 22.4761 118.778 22.4761C118.063 22.4761 117.468 22.2021 116.996 21.654C116.524 21.1059 116.289 20.3944 116.289 19.5206C116.289 18.583 116.545 17.8235 117.058 17.2435C117.555 16.7028 118.164 16.4324 118.889 16.4324C119.685 16.4324 120.243 16.6942 120.56 17.2189H120.585V13.8936H121.905V20.7839C121.905 21.348 121.92 21.8678 121.952 22.3446ZM120.585 19.9016V18.9357C120.585 18.7686 120.573 18.6334 120.549 18.5302C120.474 18.2205 120.315 17.96 120.072 17.7498C119.826 17.5397 119.531 17.434 119.19 17.434C118.698 17.434 118.313 17.6245 118.029 18.0067C117.749 18.3888 117.607 18.8767 117.607 19.4727C117.607 20.0454 117.741 20.5099 118.012 20.8675C118.297 21.2485 118.682 21.4389 119.164 21.4389C119.597 21.4389 119.943 21.2804 120.206 20.9621C120.461 20.6684 120.585 20.3145 120.585 19.9016Z" fill="white"/>
<path d="M133.231 19.4001C133.231 20.2911 132.97 21.021 132.449 21.5937C131.903 22.1823 131.181 22.4761 130.276 22.4761C129.407 22.4761 128.713 22.1946 128.195 21.6293C127.679 21.0653 127.421 20.3538 127.421 19.496C127.421 18.5989 127.686 17.8628 128.22 17.2914C128.754 16.7199 129.471 16.4336 130.376 16.4336C131.245 16.4336 131.946 16.715 132.475 17.2791C132.978 17.8272 133.231 18.535 133.231 19.4001ZM131.864 19.4419C131.864 18.9074 131.746 18.449 131.511 18.0668C131.232 17.6047 130.84 17.3737 130.326 17.3737C129.798 17.3737 129.395 17.6047 129.117 18.0668C128.881 18.449 128.764 18.9147 128.764 19.4653C128.764 19.9998 128.882 20.4582 129.117 20.8404C129.403 21.3025 129.8 21.5335 130.314 21.5335C130.817 21.5335 131.214 21.2988 131.498 20.8281C131.741 20.4386 131.864 19.9765 131.864 19.4419Z" fill="white"/>
<path d="M140.321 22.3443H139.004V19.0263C139.004 18.0039 138.606 17.4927 137.807 17.4927C137.416 17.4927 137.1 17.6328 136.856 17.9142C136.612 18.1956 136.49 18.5274 136.49 18.9071V22.3431H135.17V18.2067C135.17 17.6979 135.155 17.1461 135.123 16.5489H136.281L136.342 17.4546H136.379C136.534 17.1732 136.763 16.9409 137.062 16.7553C137.421 16.5391 137.82 16.4297 138.259 16.4297C138.811 16.4297 139.272 16.6042 139.638 16.9544C140.095 17.3833 140.321 18.0236 140.321 18.874V22.3443Z" fill="white"/>
<path d="M149.197 17.5163H147.745V20.3304C147.745 21.0457 148.003 21.4033 148.513 21.4033C148.75 21.4033 148.946 21.3836 149.101 21.3431L149.135 22.32C148.875 22.4159 148.532 22.4638 148.111 22.4638C147.59 22.4638 147.185 22.309 146.891 21.9993C146.597 21.6896 146.451 21.1686 146.451 20.4374V17.5163H145.584V16.5516H146.451V15.4898L147.743 15.1089V16.5504H149.195V17.5163H149.197Z" fill="white"/>
<path d="M156.179 22.3446H154.859V19.0512C154.859 18.0128 154.461 17.493 153.664 17.493C153.053 17.493 152.635 17.7941 152.406 18.3962C152.367 18.5228 152.344 18.6776 152.344 18.8595V22.3434H151.027V13.8936H152.344V17.3848H152.37C152.785 16.7495 153.38 16.4324 154.151 16.4324C154.698 16.4324 155.149 16.6069 155.508 16.9572C155.955 17.3934 156.179 18.0423 156.179 18.9001V22.3446Z" fill="white"/>
<path d="M163.38 19.1743C163.38 19.4054 163.362 19.5995 163.331 19.7581H159.376C159.393 20.3307 159.582 20.767 159.948 21.0693C160.283 21.3396 160.715 21.4748 161.243 21.4748C161.828 21.4748 162.362 21.3839 162.842 21.2008L163.049 22.0954C162.486 22.3338 161.824 22.453 161.058 22.453C160.139 22.453 159.416 22.1888 158.892 21.6604C158.366 21.132 158.106 20.4229 158.106 19.5332C158.106 18.6594 158.349 17.9319 158.838 17.3519C159.349 16.7325 160.04 16.4229 160.912 16.4229C161.765 16.4229 162.413 16.7325 162.851 17.3519C163.205 17.8434 163.38 18.4518 163.38 19.1743ZM162.121 18.8413C162.131 18.4591 162.045 18.1298 161.866 17.8521C161.637 17.4944 161.288 17.315 160.816 17.315C160.386 17.315 160.035 17.4895 159.767 17.8398C159.548 18.1187 159.418 18.4518 159.376 18.8413H162.121Z" fill="white"/>
<path d="M78.3619 44.5518H75.5041L73.9387 39.7481H68.4975L67.0064 44.5518H64.2241L69.615 28.1978H72.9446L78.3619 44.5518ZM73.4668 37.7327L72.0512 33.4623C71.9014 33.0261 71.6208 31.9987 71.2068 30.3815H71.1565C70.9916 31.077 70.7261 32.1044 70.3612 33.4623L68.9707 37.7327H73.4668Z" fill="white"/>
<path d="M92.2257 38.5109C92.2257 40.5164 91.6708 42.1017 90.5609 43.2655C89.5668 44.3014 88.3323 44.8188 86.8588 44.8188C85.2682 44.8188 84.1256 44.2609 83.4298 43.145H83.3794V49.3571H80.6966V36.6417C80.6966 35.3809 80.6626 34.0869 80.5972 32.7597H82.9566L83.1064 34.6288H83.1567C84.0514 33.2205 85.4092 32.5176 87.2313 32.5176C88.6557 32.5176 89.8449 33.0669 90.7962 34.1667C91.7501 35.2678 92.2257 36.7155 92.2257 38.5109ZM89.4926 38.6067C89.4926 37.459 89.2283 36.5127 88.6973 35.768C88.1172 34.9913 87.3382 34.603 86.3617 34.603C85.6998 34.603 85.0983 34.8193 84.561 35.2457C84.0224 35.6758 83.6701 36.2374 83.5052 36.933C83.4222 37.2574 83.3807 37.5229 83.3807 37.7318V39.698C83.3807 40.5558 83.65 41.2796 84.1885 41.8707C84.7271 42.4618 85.4268 42.7567 86.2875 42.7567C87.298 42.7567 88.0844 42.3757 88.6469 41.6163C89.2107 40.8556 89.4926 39.8528 89.4926 38.6067Z" fill="white"/>
<path d="M106.114 38.5109C106.114 40.5164 105.559 42.1017 104.448 43.2655C103.455 44.3014 102.221 44.8188 100.747 44.8188C99.1566 44.8188 98.014 44.2609 97.3194 43.145H97.2691V49.3571H94.5862V36.6417C94.5862 35.3809 94.5523 34.0869 94.4868 32.7597H96.8463L96.996 34.6288H97.0463C97.9398 33.2205 99.2976 32.5176 101.121 32.5176C102.544 32.5176 103.733 33.0669 104.687 34.1667C105.637 35.2678 106.114 36.7155 106.114 38.5109ZM103.381 38.6067C103.381 37.459 103.115 36.5127 102.584 35.768C102.004 34.9913 101.228 34.603 100.25 34.603C99.587 34.603 98.9867 34.8193 98.4482 35.2457C97.9096 35.6758 97.5585 36.2374 97.3936 36.933C97.3118 37.2574 97.2691 37.5229 97.2691 37.7318V39.698C97.2691 40.5558 97.5384 41.2796 98.0744 41.8707C98.613 42.4605 99.3127 42.7567 100.176 42.7567C101.186 42.7567 101.973 42.3757 102.535 41.6163C103.099 40.8556 103.381 39.8528 103.381 38.6067Z" fill="white"/>
<path d="M121.642 39.966C121.642 41.3571 121.147 42.4889 120.155 43.3627C119.064 44.3175 117.545 44.7943 115.593 44.7943C113.791 44.7943 112.346 44.4551 111.253 43.7756L111.875 41.5918C113.052 42.2874 114.345 42.6364 115.753 42.6364C116.763 42.6364 117.55 42.4127 118.115 41.9679C118.677 41.523 118.958 40.9258 118.958 40.1811C118.958 39.5175 118.726 38.9583 118.262 38.5048C117.8 38.0514 117.029 37.6299 115.952 37.2403C113.02 36.1724 111.555 34.608 111.555 32.5509C111.555 31.2065 112.068 30.1041 113.096 29.2464C114.121 28.3874 115.487 27.9585 117.196 27.9585C118.72 27.9585 119.986 28.2178 120.996 28.7352L120.326 30.871C119.382 30.3696 118.315 30.1189 117.121 30.1189C116.177 30.1189 115.44 30.3462 114.911 30.7985C114.464 31.2028 114.24 31.6956 114.24 32.2793C114.24 32.9257 114.496 33.4602 115.009 33.8805C115.456 34.2689 116.268 34.6891 117.445 35.1426C118.886 35.7091 119.944 36.3715 120.625 37.1309C121.304 37.8879 121.642 38.8354 121.642 39.966Z" fill="white"/>
<path d="M130.513 34.7258H127.555V40.4512C127.555 41.9074 128.076 42.6349 129.121 42.6349C129.6 42.6349 129.998 42.5944 130.313 42.5133L130.387 44.5029C129.858 44.6958 129.162 44.7929 128.3 44.7929C127.241 44.7929 126.413 44.477 125.815 43.8466C125.22 43.215 124.92 42.1557 124.92 40.6675V34.7233H123.159V32.7571H124.92V30.5979L127.555 29.8213V32.7571H130.513V34.7258Z" fill="white"/>
<path d="M143.855 38.5586C143.855 40.3712 143.324 41.8594 142.265 43.0231C141.154 44.2213 139.679 44.8185 137.84 44.8185C136.068 44.8185 134.658 44.2446 133.606 43.0969C132.554 41.9491 132.028 40.5002 132.028 38.754C132.028 36.9266 132.569 35.4298 133.655 34.266C134.738 33.1011 136.201 32.5186 138.039 32.5186C139.811 32.5186 141.237 33.0924 142.312 34.2415C143.342 35.3561 143.855 36.7951 143.855 38.5586ZM141.072 38.6433C141.072 37.5558 140.834 36.6231 140.352 35.8452C139.789 34.9038 138.985 34.4344 137.943 34.4344C136.865 34.4344 136.046 34.9051 135.483 35.8452C135.001 36.6243 134.764 37.5718 134.764 38.6925C134.764 39.7801 135.001 40.7128 135.483 41.4895C136.063 42.4308 136.874 42.9002 137.92 42.9002C138.944 42.9002 139.748 42.421 140.328 41.4649C140.823 40.6723 141.072 39.7297 141.072 38.6433Z" fill="white"/>
<path d="M152.575 35.0638C152.31 35.0159 152.027 34.9913 151.73 34.9913C150.786 34.9913 150.056 35.3391 149.543 36.0359C149.096 36.6503 148.872 37.427 148.872 38.3646V44.5521H146.19L146.215 36.4734C146.215 35.1142 146.181 33.8767 146.115 32.7609H148.452L148.55 35.0171H148.624C148.907 34.2417 149.354 33.6174 149.965 33.1492C150.563 32.7277 151.209 32.5176 151.905 32.5176C152.152 32.5176 152.376 32.5348 152.575 32.5655V35.0638Z" fill="white"/>
<path d="M164.574 38.0981C164.574 38.5676 164.542 38.9633 164.475 39.2865H156.427C156.458 40.4514 156.847 41.3424 157.595 41.9568C158.273 42.5062 159.15 42.7814 160.227 42.7814C161.419 42.7814 162.506 42.5959 163.484 42.2235L163.904 44.0423C162.762 44.5289 161.413 44.771 159.856 44.771C157.984 44.771 156.514 44.2327 155.444 43.1575C154.377 42.0822 153.842 40.6382 153.842 38.8269C153.842 37.0486 154.339 35.5678 155.335 34.3869C156.377 33.126 157.785 32.4956 159.557 32.4956C161.297 32.4956 162.614 33.126 163.509 34.3869C164.218 35.3884 164.574 36.6271 164.574 38.0981ZM162.015 37.4185C162.033 36.6419 161.858 35.9709 161.494 35.4044C161.03 34.6757 160.317 34.3119 159.356 34.3119C158.479 34.3119 157.766 34.6671 157.221 35.3798C156.774 35.9463 156.509 36.6259 156.427 37.4173H162.015V37.4185Z" fill="white"/>
</svg>
