<svg width="33" height="33" viewBox="0 0 33 33" fill="none" xmlns="http://www.w3.org/2000/svg">
<path d="M2.69216 24.2372C2.69216 24.9776 3.29254 25.5766 4.03158 25.5766H14.8143C15.1695 25.5766 15.5102 25.4355 15.7614 25.1843C16.0126 24.9331 16.1537 24.5924 16.1537 24.2372C16.1537 23.882 16.0126 23.5413 15.7614 23.2901C15.5102 23.0389 15.1695 22.8978 14.8143 22.8978H4.03158C3.2912 22.8978 2.69216 23.4968 2.69216 24.2372ZM2.69216 16.1535C2.69216 16.8939 3.29254 17.493 4.03158 17.493H28.2758C28.631 17.493 28.9717 17.3519 29.2229 17.1007C29.4741 16.8495 29.6152 16.5088 29.6152 16.1535C29.6152 15.7983 29.4741 15.4576 29.2229 15.2064C28.9717 14.9552 28.631 14.8141 28.2758 14.8141H4.03158C3.2912 14.8141 2.69216 15.4145 2.69216 16.1535ZM4.03158 9.40931C3.67634 9.40931 3.33566 9.2682 3.08447 9.01701C2.83327 8.76582 2.69216 8.42513 2.69216 8.06989C2.69216 7.71465 2.83327 7.37397 3.08447 7.12278C3.33566 6.87159 3.67634 6.73047 4.03158 6.73047H20.1989C20.3748 6.73047 20.549 6.76511 20.7115 6.83243C20.874 6.89974 21.0216 6.9984 21.146 7.12278C21.2704 7.24715 21.369 7.39481 21.4364 7.55732C21.5037 7.71982 21.5383 7.894 21.5383 8.06989C21.5383 8.24579 21.5037 8.41996 21.4364 8.58247C21.369 8.74497 21.2704 8.89263 21.146 9.01701C21.0216 9.14138 20.874 9.24004 20.7115 9.30736C20.549 9.37467 20.3748 9.40931 20.1989 9.40931H4.03158Z" fill="black"/>
</svg>
